<?xml version="1.0" encoding="UTF-8" standalone="no"?>
<!-- Created with Inkscape (http://www.inkscape.org/) -->

<svg
   width="100.00032mm"
   height="100.00032mm"
   viewBox="0 0 100.00032 100.00032"
   version="1.1"
   id="svg5"
   inkscape:version="1.1.2 (0a00cf5339, 2022-02-04)"
   sodipodi:docname="design-3.svg"
   inkscape:export-filename="/home/rcannood/workspace/openpipelines-bio/logos/images/design-3.png"
   inkscape:export-xdpi="200"
   inkscape:export-ydpi="200"
   xmlns:inkscape="http://www.inkscape.org/namespaces/inkscape"
   xmlns:sodipodi="http://sodipodi.sourceforge.net/DTD/sodipodi-0.dtd"
   xmlns="http://www.w3.org/2000/svg"
   xmlns:svg="http://www.w3.org/2000/svg">
  <sodipodi:namedview
     id="namedview7"
     pagecolor="#ffffff"
     bordercolor="#666666"
     borderopacity="1.0"
     inkscape:pageshadow="2"
     inkscape:pageopacity="0.0"
     inkscape:pagecheckerboard="0"
     inkscape:document-units="mm"
     showgrid="false"
     fit-margin-top="0"
     fit-margin-left="0"
     fit-margin-right="0"
     fit-margin-bottom="0"
     inkscape:zoom="2.1997092"
     inkscape:cx="32.958902"
     inkscape:cy="281.40083"
     inkscape:window-width="3840"
     inkscape:window-height="2091"
     inkscape:window-x="0"
     inkscape:window-y="32"
     inkscape:window-maximized="1"
     inkscape:current-layer="layer1" />
  <defs
     id="defs2" />
  <g
     inkscape:label="Layer 1"
     inkscape:groupmode="layer"
     id="layer1"
     transform="translate(27.2292, 397.637)">
    <rect
       style="fill:#ebf7fc;fill-opacity:1;stroke-width:0.0572794;stroke-linecap:round"
       id="rect24245"
       width="100.00032"
       height="100.00032"
       x="-27.229156"
       y="-397.63654" />
    <g
       inkscape:label="Rendered Gears"
       transform="matrix(1.7144585,0,0,1.7144585,22.771005,-355.36901)"
       id="g7557"
       style="fill:#9dd5ec;fill-opacity:1;stroke:none">
      <path
         style="fill:#9dd5ec;fill-opacity:1;stroke:none;stroke-width:0.264583"
         d="m 15.1106,-1.21651 1.4239,-0.11464 0.2575,0.00959 1.718,0.49812 v 1.64688 l -1.718,0.49812 -0.2575,0.00959 -1.4239,-0.11464 -0.3636,2.29596 1.3896,0.33098 0.2419,0.08868 1.48,1.00463 -0.5089,1.56627 -1.7879,-0.05715 -0.2478,-0.07044 -1.3188,-0.54903 -1.0553,2.07121 1.2193,0.7442 0.2027,0.15909 1.0971,1.41279 -0.968,1.3324 -1.6827,-0.6069 -0.2139,-0.1435 -1.0846,-0.92972 -1.64372,1.64372 0.92972,1.0846 0.1435,0.2139 0.6069,1.6827 -1.3324,0.968 -1.41279,-1.0971 -0.15909,-0.2027 -0.7442,-1.2193 -2.07121,1.0553 0.54903,1.3188 0.07044,0.2478 0.05715,1.7879 -1.56627,0.5089 -1.00463,-1.48 L 3.84345,16.1366 3.51247,14.747 1.21651,15.1106 1.33115,16.5345 1.32156,16.792 0.82344,18.51 h -1.64688 l -0.49812,-1.718 -0.00959,-0.2575 0.11464,-1.4239 -2.29596,-0.3636 -0.33098,1.3896 -0.08868,0.2419 -1.00463,1.48 -1.56627,-0.5089 0.05715,-1.7879 0.07044,-0.2478 0.54903,-1.3188 -2.07121,-1.0553 -0.7442,1.2193 -0.15909,0.2027 -1.41279,1.0971 -1.3324,-0.968 0.6069,-1.6827 0.1435,-0.2139 0.92972,-1.0846 -1.64372,-1.64372 -1.0846,0.92972 -0.2139,0.1435 -1.6827,0.6069 -0.968,-1.3324 1.0971,-1.41279 0.2027,-0.15909 1.2193,-0.7442 -1.0553,-2.07121 -1.3188,0.54903 -0.2478,0.07044 -1.7879,0.05715 -0.5089,-1.56627 1.48,-1.00463 0.2419,-0.08868 1.3896,-0.33098 -0.3636,-2.29596 -1.4239,0.11464 -0.2575,-0.00959 -1.718,-0.49812 v -1.64688 l 1.718,-0.49812 0.2575,-0.00959 1.4239,0.11464 0.3636,-2.29596 -1.3896,-0.33098 -0.2419,-0.08868 -1.48,-1.00463 0.5089,-1.56627 1.7879,0.05715 0.2478,0.07044 1.3188,0.54903 1.0553,-2.07121 -1.2193,-0.7442 -0.2027,-0.15909 -1.0971,-1.41279 0.968,-1.3324 1.6827,0.6069 0.2139,0.1435 1.0846,0.92972 1.64372,-1.64372 -0.92972,-1.0846 -0.1435,-0.2139 -0.6069,-1.6827 1.3324,-0.968 1.41279,1.0971 0.15909,0.2027 0.7442,1.2193 2.07121,-1.0553 -0.54903,-1.3188 -0.07044,-0.2478 -0.05715,-1.7879 1.56627,-0.5089 1.00463,1.48 0.08868,0.2419 0.33098,1.3896 2.29596,-0.3636 -0.11464,-1.4239 0.00959,-0.2575 0.49812,-1.718 h 1.64688 l 0.49812,1.718 0.00959,0.2575 -0.11464,1.4239 2.29596,0.3636 0.33098,-1.3896 0.08868,-0.2419 1.00463,-1.48 1.56627,0.5089 -0.05715,1.7879 -0.07044,0.2478 -0.54903,1.3188 2.07121,1.0553 0.7442,-1.2193 0.15909,-0.2027 1.41279,-1.0971 1.3324,0.968 -0.6069,1.6827 -0.1435,0.2139 -0.92972,1.0846 1.64372,1.64372 1.0846,-0.92972 0.2139,-0.1435 1.6827,-0.6069 0.968,1.3324 -1.0971,1.41279 -0.2027,0.15909 -1.2193,0.7442 1.0553,2.07121 1.3188,-0.54903 0.2478,-0.07044 1.7879,-0.05715 0.5089,1.56627 -1.48,1.00463 -0.2419,0.08868 -1.3896,0.33098 z"
         id="path7553" />
      <circle
         style="fill:#ebf7fc;fill-opacity:1;stroke:none;stroke-width:0.264583"
         id="path7555"
         cx="0"
         cy="0"
         r="12.567708" />
    </g>
    <text
       xml:space="preserve"
       style="font-style:normal;font-variant:normal;font-weight:normal;font-stretch:normal;font-size:13.7255px;line-height:1.25;font-family:Lato;-inkscape-font-specification:Lato;fill:#183a58;fill-opacity:1;stroke:none;stroke-width:0.0571895"
       x="-21.047567"
       y="-307.12927"
       id="text29372"><tspan
         sodipodi:role="line"
         id="tspan29370"
         style="font-style:normal;font-variant:normal;font-weight:normal;font-stretch:normal;font-size:13.7255px;font-family:Lato;-inkscape-font-specification:Lato;fill:#183a58;fill-opacity:1;stroke-width:0.0571895"
         x="-21.047567"
         y="-307.12927"><tspan
   style="font-style:normal;font-variant:normal;font-weight:bold;font-stretch:normal;font-size:13.7255px;font-family:Lato;-inkscape-font-specification:Lato;fill:#183a58;fill-opacity:1;stroke-width:0.0571895"
   id="tspan29374">Open</tspan>Pipelines</tspan></text>
    <g
       id="g79647"
       transform="matrix(0.2161496,0,0,0.2161496,-119.60596,-318.26146)">
      <path
         style="fill:none;stroke:#183a58;stroke-width:10;stroke-linecap:butt;stroke-linejoin:miter;stroke-miterlimit:4;stroke-dasharray:none;stroke-opacity:1"
         d="m 451.98704,-208.9453 c 7.04074,26.07904 7.46614,56.47443 24.88715,78.12083 21.55455,19.00067 47.35467,-0.99307 59.43701,-20.47646 13.21253,-23.85525 47.10798,-53.29976 70.05606,-22.42287 18.28103,24.89676 13.75184,66.0558 45.99436,79.939228 28.37692,5.796927 46.08176,-25.060578 55.42815,-47.059458 7.30778,-22.93123 24.93801,-63.00691 55.24303,-46.07043 20.79678,13.29117 23.76613,41.3559 41.83778,57.76076 25.04678,28.41381 45.90523,-20.12477 50.85456,-41.25806 3.95995,-10.04723 8.38681,-20.05809 10.10261,-30.79949"
         id="path64444" />
      <path
         style="fill:none;stroke:#2284ae;stroke-width:10;stroke-linecap:butt;stroke-linejoin:miter;stroke-miterlimit:4;stroke-dasharray:none;stroke-opacity:1"
         d="m 450.51538,-123.70236 c 8.55013,-28.11796 33.805,-57.3746 64.54317,-58.4553 26.84361,12.95556 32.02203,46.98771 53.20709,66.40551 20.51624,19.243402 42.06625,-17.13401 55.097,-31.34361 13.01501,-23.31081 47.36741,-41.56058 68.38702,-16.67613 18.3735,19.8288 37.39839,80.886807 70.83359,45.68878 17.65325,-18.14556 21.76178,-43.39519 33.1009,-64.95283 12.54328,-20.51986 46.12171,-36.61463 64.71134,-14.98843 1.45447,6.31916 8.67816,3.94509 5.43224,-3.18688"
         id="path64545" />
    </g>
    <g
       inkscape:label="Rendered Gears"
       transform="translate(-209.3407,-321.21234)"
       id="g1294">
      <path
         style="fill:none;stroke:#000000;stroke-width:0.264583"
         d="m 15.0934,-1.41451 0.6656,-0.06238 1.033,0.15533 1.7271,0.73643 v 1.17026 l -1.7271,0.73643 -1.033,0.15533 -0.6656,-0.06238 -0.3016,1.90432 0.6523,0.14637 0.9344,0.46693 1.415,1.23408 -0.3616,1.11298 -1.8702,0.16669 -1.0304,-0.17146 -0.6138,-0.26504 -0.8753,1.71792 0.5752,0.3408 0.7444,0.73281 0.9644,1.61089 -0.6879,0.9468 -1.8301,-0.4194 -0.927,-0.4814 -0.5018,-0.4418 -1.3634,1.3634 0.4418,0.5018 0.4814,0.927 0.4194,1.8301 -0.9468,0.6879 L 8.80091,14.3618 8.0681,13.6174 7.7273,13.0422 6.00938,13.9175 6.27442,14.5313 6.44588,15.5617 6.27919,17.4319 5.16621,17.7935 3.93213,16.3785 3.4652,15.4441 3.31883,14.7918 1.41451,15.0934 1.47689,15.759 1.32156,16.792 0.58513,18.5191 h -1.17026 l -0.73643,-1.7271 -0.15533,-1.033 0.06238,-0.6656 -1.90432,-0.3016 -0.14637,0.6523 -0.46693,0.9344 -1.23408,1.415 -1.11298,-0.3616 -0.16669,-1.8702 0.17146,-1.0304 0.26504,-0.6138 -1.71792,-0.8753 -0.3408,0.5752 -0.73281,0.7444 -1.61089,0.9644 -0.9468,-0.6879 0.4194,-1.8301 0.4814,-0.927 0.4418,-0.5018 -1.3634,-1.3634 -0.5018,0.4418 -0.927,0.4814 -1.8301,0.4194 -0.6879,-0.9468 0.9644,-1.61089 0.7444,-0.73281 0.5752,-0.3408 -0.8753,-1.71792 -0.6138,0.26504 -1.0304,0.17146 -1.8702,-0.16669 -0.3616,-1.11298 1.415,-1.23408 0.9344,-0.46693 0.6523,-0.14637 -0.3016,-1.90432 -0.6656,0.06238 -1.033,-0.15533 -1.7271,-0.73643 v -1.17026 l 1.7271,-0.73643 1.033,-0.15533 0.6656,0.06238 0.3016,-1.90432 -0.6523,-0.14637 -0.9344,-0.46693 -1.415,-1.23408 0.3616,-1.11298 1.8702,-0.16669 1.0304,0.17146 0.6138,0.26504 0.8753,-1.71792 -0.5752,-0.3408 -0.7444,-0.73281 -0.9644,-1.61089 0.6879,-0.9468 1.8301,0.4194 0.927,0.4814 0.5018,0.4418 1.3634,-1.3634 -0.4418,-0.5018 -0.4814,-0.927 -0.4194,-1.8301 0.9468,-0.6879 1.61089,0.9644 0.73281,0.7444 0.3408,0.5752 1.71792,-0.8753 -0.26504,-0.6138 -0.17146,-1.0304 0.16669,-1.8702 1.11298,-0.3616 1.23408,1.415 0.46693,0.9344 0.14637,0.6523 1.90432,-0.3016 -0.06238,-0.6656 0.15533,-1.033 0.73643,-1.7271 h 1.17026 l 0.73643,1.7271 0.15533,1.033 -0.06238,0.6656 1.90432,0.3016 0.14637,-0.6523 0.46693,-0.9344 1.23408,-1.415 1.11298,0.3616 0.16669,1.8702 -0.17146,1.0304 -0.26504,0.6138 1.71792,0.8753 0.3408,-0.5752 0.73281,-0.7444 1.61089,-0.9644 0.9468,0.6879 -0.4194,1.8301 -0.4814,0.927 -0.4418,0.5018 1.3634,1.3634 0.5018,-0.4418 0.927,-0.4814 1.8301,-0.4194 0.6879,0.9468 -0.9644,1.61089 -0.7444,0.73281 -0.5752,0.3408 0.8753,1.71792 0.6138,-0.26504 1.0304,-0.17146 1.8702,0.16669 0.3616,1.11298 -1.415,1.23408 -0.9344,0.46693 -0.6523,0.14637 z"
         id="path1290" />
      <circle
         style="fill:none;stroke:#000000;stroke-width:0.264583"
         id="path1292"
         cx="0"
         cy="0"
         r="2.6458333" />
    </g>
    <g
       inkscape:label="Rendered Gears"
       transform="translate(-20.151794,-254.16599)"
       id="g1627">
      <path
         style="fill:none;stroke:#000000;stroke-width:0.264583"
         d="m 7.54669,-0.70725 0.33283,-0.0312 0.51647,0.07767 0.86353,0.36822 V 0.29256 L 8.39599,0.66078 7.87952,0.73845 7.54669,0.70725 7.39588,1.65942 7.72206,1.7326 8.18925,1.96606 8.89674,2.58311 8.71592,3.13959 7.78087,3.22294 7.26567,3.13721 6.95877,3.00469 6.52111,3.86365 6.80871,4.03405 7.18089,4.40046 7.66308,5.20592 7.31915,5.6793 6.4041,5.46962 5.94062,5.22888 5.68968,5.00801 5.00801,5.68968 5.22888,5.94062 5.46962,6.4041 5.6793,7.31915 5.20592,7.66308 4.40046,7.18089 4.03405,6.80871 3.86365,6.52111 3.00469,6.95877 3.13721,7.26567 3.22294,7.78087 3.13959,8.71592 2.58311,8.89674 1.96606,8.18925 1.7326,7.72206 1.65942,7.39588 0.70725,7.54669 0.73845,7.87952 0.66078,8.39599 0.29256,9.25952 H -0.29256 L -0.66078,8.39599 -0.73845,7.87952 -0.70725,7.54669 -1.65942,7.39588 -1.7326,7.72206 -1.96606,8.18925 -2.58311,8.89674 -3.13959,8.71592 -3.22294,7.78087 -3.13721,7.26567 -3.00469,6.95877 -3.86365,6.52111 -4.03405,6.80871 -4.40046,7.18089 -5.20592,7.66308 -5.6793,7.31915 -5.46962,6.4041 -5.22888,5.94062 -5.00801,5.68968 -5.68968,5.00801 -5.94062,5.22888 -6.4041,5.46962 -7.31915,5.6793 -7.66308,5.20592 -7.18089,4.40046 -6.80871,4.03405 -6.52111,3.86365 -6.95877,3.00469 -7.26567,3.13721 -7.78087,3.22294 -8.71592,3.13959 -8.89674,2.58311 -8.18925,1.96606 -7.72206,1.7326 -7.39588,1.65942 -7.54669,0.70725 -7.87952,0.73845 -8.39599,0.66078 -9.25952,0.29256 v -0.58512 l 0.86353,-0.36822 0.51647,-0.07767 0.33283,0.0312 0.15081,-0.95217 -0.32618,-0.07318 -0.46719,-0.23346 -0.70749,-0.61705 0.18082,-0.55648 0.93505,-0.08335 0.5152,0.08573 0.3069,0.13252 0.43766,-0.85896 -0.2876,-0.1704 -0.37218,-0.36641 -0.48219,-0.80546 0.34393,-0.47338 0.91505,0.20968 0.46348,0.24074 0.25094,0.22087 0.68167,-0.68167 -0.22087,-0.25094 -0.24074,-0.46348 -0.20968,-0.91505 0.47338,-0.34393 0.80546,0.48219 0.36641,0.37218 0.1704,0.2876 0.85896,-0.43766 -0.13252,-0.3069 -0.08573,-0.5152 0.08335,-0.93505 0.55648,-0.18082 0.61705,0.70749 0.23346,0.46719 0.07318,0.32618 0.95217,-0.15081 -0.0312,-0.33283 0.07767,-0.51647 0.36822,-0.86353 h 0.58512 l 0.36822,0.86353 0.07767,0.51647 -0.0312,0.33283 0.95217,0.15081 0.07318,-0.32618 0.23346,-0.46719 0.61705,-0.70749 0.55648,0.18082 0.08335,0.93505 -0.08573,0.5152 -0.13252,0.3069 0.85896,0.43766 0.1704,-0.2876 0.36641,-0.37218 0.80546,-0.48219 0.47338,0.34393 -0.20968,0.91505 -0.24074,0.46348 -0.22087,0.25094 0.68167,0.68167 0.25094,-0.22087 0.46348,-0.24074 0.91505,-0.20968 0.34393,0.47338 -0.48219,0.80546 -0.37218,0.36641 -0.2876,0.1704 0.43766,0.85896 0.3069,-0.13252 0.5152,-0.08573 0.93505,0.08335 0.18082,0.55648 -0.70749,0.61705 -0.46719,0.23346 -0.32618,0.07318 z"
         id="path1623" />
      <circle
         style="fill:none;stroke:#000000;stroke-width:0.264583"
         id="path1625"
         cx="0"
         cy="0"
         r="2.6458333" />
    </g>
    <g
       inkscape:label="Rendered Gears"
       transform="translate(-204.76157,-372.68331)"
       id="g1868">
      <path
         style="fill:none;stroke:#000000;stroke-width:0.264583"
         d="m 22.6401,-2.12176 0.9984,-0.09358 1.5495,0.233 2.5906,1.10465 v 1.75538 l -2.5906,1.10465 -1.5495,0.233 -0.9984,-0.09358 -0.4525,2.85649 0.9786,0.21955 1.4016,0.70039 2.1224,1.85113 -0.5424,1.66946 -2.8052,0.25004 -1.5456,-0.2572 -0.9207,-0.39754 -1.313,2.57682 0.8628,0.5112 1.1166,1.0993 1.4465,2.4164 -1.0318,1.4201 -2.7451,-0.629 -1.3904,-0.7223 -0.7528,-0.6626 -2.0451,2.0451 0.6626,0.7528 0.7223,1.3904 0.629,2.7451 -1.4201,1.0318 -2.4164,-1.4465 -1.0993,-1.1166 -0.5112,-0.8628 -2.57682,1.313 0.39754,0.9207 0.2572,1.5456 -0.25004,2.8052 -1.66946,0.5424 -1.85113,-2.1224 -0.70039,-1.4016 -0.21955,-0.9786 -2.85649,0.4525 0.09358,0.9984 -0.233,1.5495 -1.10465,2.5906 h -1.75538 l -1.10465,-2.5906 -0.233,-1.5495 0.09358,-0.9984 -2.85649,-0.4525 -0.21955,0.9786 -0.70039,1.4016 -1.85113,2.1224 -1.66946,-0.5424 -0.25004,-2.8052 0.2572,-1.5456 0.39754,-0.9207 -2.57682,-1.313 -0.5112,0.8628 -1.0993,1.1166 -2.4164,1.4465 -1.4201,-1.0318 0.629,-2.7451 0.7223,-1.3904 0.6626,-0.7528 -2.0451,-2.0451 -0.7528,0.6626 -1.3904,0.7223 -2.7451,0.629 -1.0318,-1.4201 1.4465,-2.4164 1.1166,-1.0993 0.8628,-0.5112 -1.313,-2.57682 -0.9207,0.39754 -1.5456,0.2572 -2.8052,-0.25004 -0.5424,-1.66946 2.1224,-1.85113 1.4016,-0.70039 0.9786,-0.21955 -0.4525,-2.85649 -0.9984,0.09358 -1.5495,-0.233 -2.5906,-1.10465 v -1.75538 l 2.5906,-1.10465 1.5495,-0.233 0.9984,0.09358 0.4525,-2.85649 -0.9786,-0.21955 -1.4016,-0.70039 -2.1224,-1.85113 0.5424,-1.66946 2.8052,-0.25004 1.5456,0.2572 0.9207,0.39754 1.313,-2.57682 -0.8628,-0.5112 -1.1166,-1.0993 -1.4465,-2.4164 1.0318,-1.4201 2.7451,0.629 1.3904,0.7223 0.7528,0.6626 2.0451,-2.0451 -0.6626,-0.7528 -0.7223,-1.3904 -0.629,-2.7451 1.4201,-1.0318 2.4164,1.4465 1.0993,1.1166 0.5112,0.8628 2.57682,-1.313 -0.39754,-0.9207 -0.2572,-1.5456 0.25004,-2.8052 1.66946,-0.5424 1.85113,2.1224 0.70039,1.4016 0.21955,0.9786 2.85649,-0.4525 -0.09358,-0.9984 0.233,-1.5495 1.10465,-2.5906 h 1.75538 l 1.10465,2.5906 0.233,1.5495 -0.09358,0.9984 2.85649,0.4525 0.21955,-0.9786 0.70039,-1.4016 1.85113,-2.1224 1.66946,0.5424 0.25004,2.8052 -0.2572,1.5456 -0.39754,0.9207 2.57682,1.313 0.5112,-0.8628 1.0993,-1.1166 2.4164,-1.4465 1.4201,1.0318 -0.629,2.7451 -0.7223,1.3904 -0.6626,0.7528 2.0451,2.0451 0.7528,-0.6626 1.3904,-0.7223 2.7451,-0.629 1.0318,1.4201 -1.4465,2.4164 -1.1166,1.0993 -0.8628,0.5112 1.313,2.57682 0.9207,-0.39754 1.5456,-0.2572 2.8052,0.25004 0.5424,1.66946 -2.1224,1.85113 -1.4016,0.70039 -0.9786,0.21955 z"
         id="path1864" />
      <circle
         style="fill:none;stroke:#000000;stroke-width:0.264583"
         id="path1866"
         cx="0"
         cy="0"
         r="2.6458333" />
    </g>
    <g
       inkscape:label="Rendered Gears"
       transform="translate(-142.6345,-334.11347)"
       id="g2115">
      <path
         style="fill:none;stroke:#000000;stroke-width:0.264583"
         d="m 22.6659,-1.82477 2.1359,-0.17195 0.3862,0.01438 2.577,0.74719 v 2.4703 l -2.577,0.74719 -0.3862,0.01438 -2.1359,-0.17195 -0.5454,3.44393 2.0844,0.49647 0.3629,0.13302 2.2199,1.50696 -0.7633,2.3494 -2.6818,-0.08573 -0.3718,-0.10566 -1.9781,-0.82354 -1.583,3.10678 1.829,1.1163 0.304,0.2387 1.6456,2.1192 -1.452,1.9985 -2.524,-0.9102 -0.3209,-0.2154 -1.6269,-1.3945 -2.4655,2.4655 1.3945,1.6269 0.2154,0.3209 0.9102,2.524 -1.9985,1.452 -2.1192,-1.6456 -0.2387,-0.304 -1.1163,-1.829 -3.10678,1.583 0.82354,1.9781 0.10566,0.3718 0.08573,2.6818 -2.3494,0.7633 L 5.89819,24.5678 5.76517,24.2049 5.2687,22.1205 1.82477,22.6659 1.99672,24.8018 1.98234,25.188 1.23515,27.765 h -2.4703 l -0.74719,-2.577 -0.01438,-0.3862 0.17195,-2.1359 -3.44393,-0.5454 -0.49647,2.0844 -0.13302,0.3629 -1.50696,2.2199 -2.3494,-0.7633 0.08573,-2.6818 0.10566,-0.3718 0.82354,-1.9781 -3.10678,-1.583 -1.1163,1.829 -0.2387,0.304 -2.1192,1.6456 -1.9985,-1.452 0.9102,-2.524 0.2154,-0.3209 1.3945,-1.6269 -2.4655,-2.4655 -1.6269,1.3945 -0.3209,0.2154 -2.524,0.9102 -1.452,-1.9985 1.6456,-2.1192 0.304,-0.2387 1.829,-1.1163 -1.583,-3.10678 -1.9781,0.82354 -0.3718,0.10566 -2.6818,0.08573 -0.7633,-2.3494 2.2199,-1.50696 0.3629,-0.13302 2.0844,-0.49647 -0.5454,-3.44393 -2.1359,0.17195 -0.3862,-0.01438 -2.577,-0.74719 v -2.4703 l 2.577,-0.74719 0.3862,-0.01438 2.1359,0.17195 0.5454,-3.44393 -2.0844,-0.49647 -0.3629,-0.13302 -2.2199,-1.50696 0.7633,-2.3494 2.6818,0.08573 0.3718,0.10566 1.9781,0.82354 1.583,-3.10678 -1.829,-1.1163 -0.304,-0.2387 -1.6456,-2.1192 1.452,-1.9985 2.524,0.9102 0.3209,0.2154 1.6269,1.3945 2.4655,-2.4655 -1.3945,-1.6269 -0.2154,-0.3209 -0.9102,-2.524 1.9985,-1.452 2.1192,1.6456 0.2387,0.304 1.1163,1.829 3.10678,-1.583 -0.82354,-1.9781 -0.10566,-0.3718 -0.08573,-2.6818 2.3494,-0.7633 1.50696,2.2199 0.13302,0.3629 0.49647,2.0844 3.44393,-0.5454 -0.17195,-2.1359 0.01438,-0.3862 0.74719,-2.577 h 2.4703 l 0.74719,2.577 0.01438,0.3862 -0.17195,2.1359 3.44393,0.5454 0.49647,-2.0844 0.13302,-0.3629 1.50696,-2.2199 2.3494,0.7633 -0.08573,2.6818 -0.10566,0.3718 -0.82354,1.9781 3.10678,1.583 1.1163,-1.829 0.2387,-0.304 2.1192,-1.6456 1.9985,1.452 -0.9102,2.524 -0.2154,0.3209 -1.3945,1.6269 2.4655,2.4655 1.6269,-1.3945 0.3209,-0.2154 2.524,-0.9102 1.452,1.9985 -1.6456,2.1192 -0.304,0.2387 -1.829,1.1163 1.583,3.10678 1.9781,-0.82354 0.3718,-0.10566 2.6818,-0.08573 0.7633,2.3494 -2.2199,1.50696 -0.3629,0.13302 -2.0844,0.49647 z"
         id="path2111" />
      <circle
         style="fill:none;stroke:#000000;stroke-width:0.264583"
         id="path2113"
         cx="0"
         cy="0"
         r="2.6458333" />
    </g>
    <g
       inkscape:label="Rendered Gears"
       transform="translate(-95.6174,-352.60764)"
       id="g2368">
      <path
         style="fill:none;stroke:#000000;stroke-width:0.264583"
         d="m 22.6659,-1.82477 2.1359,-0.17195 0.3862,0.01438 2.577,0.74719 v 2.4703 l -2.577,0.74719 -0.3862,0.01438 -2.1359,-0.17195 -0.5454,3.44393 2.0844,0.49647 0.3629,0.13302 2.2199,1.50696 -0.7633,2.3494 -2.6818,-0.08573 -0.3718,-0.10566 -1.9781,-0.82354 -1.583,3.10678 1.829,1.1163 0.304,0.2387 1.6456,2.1192 -1.452,1.9985 -2.524,-0.9102 -0.3209,-0.2154 -1.6269,-1.3945 -2.4655,2.4655 1.3945,1.6269 0.2154,0.3209 0.9102,2.524 -1.9985,1.452 -2.1192,-1.6456 -0.2387,-0.304 -1.1163,-1.829 -3.10678,1.583 0.82354,1.9781 0.10566,0.3718 0.08573,2.6818 -2.3494,0.7633 L 5.89819,24.5678 5.76517,24.2049 5.2687,22.1205 1.82477,22.6659 1.99672,24.8018 1.98234,25.188 1.23515,27.765 h -2.4703 l -0.74719,-2.577 -0.01438,-0.3862 0.17195,-2.1359 -3.44393,-0.5454 -0.49647,2.0844 -0.13302,0.3629 -1.50696,2.2199 -2.3494,-0.7633 0.08573,-2.6818 0.10566,-0.3718 0.82354,-1.9781 -3.10678,-1.583 -1.1163,1.829 -0.2387,0.304 -2.1192,1.6456 -1.9985,-1.452 0.9102,-2.524 0.2154,-0.3209 1.3945,-1.6269 -2.4655,-2.4655 -1.6269,1.3945 -0.3209,0.2154 -2.524,0.9102 -1.452,-1.9985 1.6456,-2.1192 0.304,-0.2387 1.829,-1.1163 -1.583,-3.10678 -1.9781,0.82354 -0.3718,0.10566 -2.6818,0.08573 -0.7633,-2.3494 2.2199,-1.50696 0.3629,-0.13302 2.0844,-0.49647 -0.5454,-3.44393 -2.1359,0.17195 -0.3862,-0.01438 -2.577,-0.74719 v -2.4703 l 2.577,-0.74719 0.3862,-0.01438 2.1359,0.17195 0.5454,-3.44393 -2.0844,-0.49647 -0.3629,-0.13302 -2.2199,-1.50696 0.7633,-2.3494 2.6818,0.08573 0.3718,0.10566 1.9781,0.82354 1.583,-3.10678 -1.829,-1.1163 -0.304,-0.2387 -1.6456,-2.1192 1.452,-1.9985 2.524,0.9102 0.3209,0.2154 1.6269,1.3945 2.4655,-2.4655 -1.3945,-1.6269 -0.2154,-0.3209 -0.9102,-2.524 1.9985,-1.452 2.1192,1.6456 0.2387,0.304 1.1163,1.829 3.10678,-1.583 -0.82354,-1.9781 -0.10566,-0.3718 -0.08573,-2.6818 2.3494,-0.7633 1.50696,2.2199 0.13302,0.3629 0.49647,2.0844 3.44393,-0.5454 -0.17195,-2.1359 0.01438,-0.3862 0.74719,-2.577 h 2.4703 l 0.74719,2.577 0.01438,0.3862 -0.17195,2.1359 3.44393,0.5454 0.49647,-2.0844 0.13302,-0.3629 1.50696,-2.2199 2.3494,0.7633 -0.08573,2.6818 -0.10566,0.3718 -0.82354,1.9781 3.10678,1.583 1.1163,-1.829 0.2387,-0.304 2.1192,-1.6456 1.9985,1.452 -0.9102,2.524 -0.2154,0.3209 -1.3945,1.6269 2.4655,2.4655 1.6269,-1.3945 0.3209,-0.2154 2.524,-0.9102 1.452,1.9985 -1.6456,2.1192 -0.304,0.2387 -1.829,1.1163 1.583,3.10678 1.9781,-0.82354 0.3718,-0.10566 2.6818,-0.08573 0.7633,2.3494 -2.2199,1.50696 -0.3629,0.13302 -2.0844,0.49647 z"
         id="path2364" />
      <circle
         style="fill:none;stroke:#000000;stroke-width:0.264583"
         id="path2366"
         cx="0"
         cy="0"
         r="2.6458333" />
    </g>
    <g
       inkscape:label="Rendered Gears"
       transform="translate(-127.47123,-405.51942)"
       id="g2627">
      <path
         style="fill:none;stroke:#000000;stroke-width:0.264583"
         d="m 22.6659,-1.82477 2.1359,-0.17195 0.3862,0.01438 2.577,0.74719 v 2.4703 l -2.577,0.74719 -0.3862,0.01438 -2.1359,-0.17195 -0.5454,3.44393 2.0844,0.49647 0.3629,0.13302 2.2199,1.50696 -0.7633,2.3494 -2.6818,-0.08573 -0.3718,-0.10566 -1.9781,-0.82354 -1.583,3.10678 1.829,1.1163 0.304,0.2387 1.6456,2.1192 -1.452,1.9985 -2.524,-0.9102 -0.3209,-0.2154 -1.6269,-1.3945 -2.4655,2.4655 1.3945,1.6269 0.2154,0.3209 0.9102,2.524 -1.9985,1.452 -2.1192,-1.6456 -0.2387,-0.304 -1.1163,-1.829 -3.10678,1.583 0.82354,1.9781 0.10566,0.3718 0.08573,2.6818 -2.3494,0.7633 L 5.89819,24.5678 5.76517,24.2049 5.2687,22.1205 1.82477,22.6659 1.99672,24.8018 1.98234,25.188 1.23515,27.765 h -2.4703 l -0.74719,-2.577 -0.01438,-0.3862 0.17195,-2.1359 -3.44393,-0.5454 -0.49647,2.0844 -0.13302,0.3629 -1.50696,2.2199 -2.3494,-0.7633 0.08573,-2.6818 0.10566,-0.3718 0.82354,-1.9781 -3.10678,-1.583 -1.1163,1.829 -0.2387,0.304 -2.1192,1.6456 -1.9985,-1.452 0.9102,-2.524 0.2154,-0.3209 1.3945,-1.6269 -2.4655,-2.4655 -1.6269,1.3945 -0.3209,0.2154 -2.524,0.9102 -1.452,-1.9985 1.6456,-2.1192 0.304,-0.2387 1.829,-1.1163 -1.583,-3.10678 -1.9781,0.82354 -0.3718,0.10566 -2.6818,0.08573 -0.7633,-2.3494 2.2199,-1.50696 0.3629,-0.13302 2.0844,-0.49647 -0.5454,-3.44393 -2.1359,0.17195 -0.3862,-0.01438 -2.577,-0.74719 v -2.4703 l 2.577,-0.74719 0.3862,-0.01438 2.1359,0.17195 0.5454,-3.44393 -2.0844,-0.49647 -0.3629,-0.13302 -2.2199,-1.50696 0.7633,-2.3494 2.6818,0.08573 0.3718,0.10566 1.9781,0.82354 1.583,-3.10678 -1.829,-1.1163 -0.304,-0.2387 -1.6456,-2.1192 1.452,-1.9985 2.524,0.9102 0.3209,0.2154 1.6269,1.3945 2.4655,-2.4655 -1.3945,-1.6269 -0.2154,-0.3209 -0.9102,-2.524 1.9985,-1.452 2.1192,1.6456 0.2387,0.304 1.1163,1.829 3.10678,-1.583 -0.82354,-1.9781 -0.10566,-0.3718 -0.08573,-2.6818 2.3494,-0.7633 1.50696,2.2199 0.13302,0.3629 0.49647,2.0844 3.44393,-0.5454 -0.17195,-2.1359 0.01438,-0.3862 0.74719,-2.577 h 2.4703 l 0.74719,2.577 0.01438,0.3862 -0.17195,2.1359 3.44393,0.5454 0.49647,-2.0844 0.13302,-0.3629 1.50696,-2.2199 2.3494,0.7633 -0.08573,2.6818 -0.10566,0.3718 -0.82354,1.9781 3.10678,1.583 1.1163,-1.829 0.2387,-0.304 2.1192,-1.6456 1.9985,1.452 -0.9102,2.524 -0.2154,0.3209 -1.3945,1.6269 2.4655,2.4655 1.6269,-1.3945 0.3209,-0.2154 2.524,-0.9102 1.452,1.9985 -1.6456,2.1192 -0.304,0.2387 -1.829,1.1163 1.583,3.10678 1.9781,-0.82354 0.3718,-0.10566 2.6818,-0.08573 0.7633,2.3494 -2.2199,1.50696 -0.3629,0.13302 -2.0844,0.49647 z"
         id="path2623" />
      <circle
         style="fill:none;stroke:#000000;stroke-width:0.264583"
         id="path2625"
         cx="0"
         cy="0"
         r="2.6458333" />
    </g>
    <g
       inkscape:label="Rendered Gears"
       transform="translate(-81.860363,-267.77241)"
       id="g2892">
      <path
         style="fill:none;stroke:#000000;stroke-width:0.264583"
         d="m 22.5616,-2.83707 2.6264,0.85473 2.6019,1.60658 v 0.75152 l -2.6019,1.60658 -2.6264,0.85473 -0.2275,1.43663 2.2337,1.62449 1.9781,2.33199 -0.2323,0.71474 -2.971,0.7239 -2.762,0.00131 -0.6603,1.29597 1.6224,2.2353 1.1607,2.8291 -0.4418,0.608 -3.0493,-0.2296 -2.6272,-0.8523 -1.0285,1.0285 0.8523,2.6272 0.2296,3.0493 -0.608,0.4418 -2.8291,-1.1607 -2.2353,-1.6224 -1.29597,0.6603 -0.00131,2.762 -0.7239,2.971 L 8.23018,26.5459 5.89819,24.5678 4.2737,22.3341 2.83707,22.5616 1.98234,25.188 0.37576,27.7899 h -0.75152 l -1.60658,-2.6019 -0.85473,-2.6264 -1.43663,-0.2275 -1.62449,2.2337 -2.33199,1.9781 -0.71474,-0.2323 -0.7239,-2.971 -0.00131,-2.762 -1.29597,-0.6603 -2.2353,1.6224 -2.8291,1.1607 -0.608,-0.4418 0.2296,-3.0493 0.8523,-2.6272 -1.0285,-1.0285 -2.6272,0.8523 -3.0493,0.2296 -0.4418,-0.608 1.1607,-2.8291 1.6224,-2.2353 -0.6603,-1.29597 -2.762,-0.00131 -2.971,-0.7239 -0.2323,-0.71474 1.9781,-2.33199 2.2337,-1.62449 -0.2275,-1.43663 -2.6264,-0.85473 -2.6019,-1.60658 v -0.75152 l 2.6019,-1.60658 2.6264,-0.85473 0.2275,-1.43663 -2.2337,-1.62449 -1.9781,-2.33199 0.2323,-0.71474 2.971,-0.7239 2.762,-0.00131 0.6603,-1.29597 -1.6224,-2.2353 -1.1607,-2.8291 0.4418,-0.608 3.0493,0.2296 2.6272,0.8523 1.0285,-1.0285 -0.8523,-2.6272 -0.2296,-3.0493 0.608,-0.4418 2.8291,1.1607 2.2353,1.6224 1.29597,-0.6603 0.00131,-2.762 0.7239,-2.971 0.71474,-0.2323 2.33199,1.9781 1.62449,2.2337 1.43663,-0.2275 0.85473,-2.6264 1.60658,-2.6019 h 0.75152 l 1.60658,2.6019 0.85473,2.6264 1.43663,0.2275 1.62449,-2.2337 2.33199,-1.9781 0.71474,0.2323 0.7239,2.971 0.00131,2.762 1.29597,0.6603 2.2353,-1.6224 2.8291,-1.1607 0.608,0.4418 -0.2296,3.0493 -0.8523,2.6272 1.0285,1.0285 2.6272,-0.8523 3.0493,-0.2296 0.4418,0.608 -1.1607,2.8291 -1.6224,2.2353 0.6603,1.29597 2.762,0.00131 2.971,0.7239 0.2323,0.71474 -1.9781,2.33199 -2.2337,1.62449 z"
         id="path2888" />
      <circle
         style="fill:none;stroke:#000000;stroke-width:0.264583"
         id="path2890"
         cx="0"
         cy="0"
         r="2.6458333" />
    </g>
    <g
       inkscape:label="Rendered Gears"
       transform="translate(-146.75629,-268.40194)"
       id="g3161">
      <path
         style="fill:none;stroke:#000000;stroke-width:0.264583"
         d="m 22.5616,-2.83707 2.6264,0.85473 2.6019,1.60658 v 0.75152 l -2.6019,1.60658 -2.6264,0.85473 -0.2275,1.43663 2.2337,1.62449 1.9781,2.33199 -0.2323,0.71474 -2.971,0.7239 -2.762,0.00131 -0.6603,1.29597 1.6224,2.2353 1.1607,2.8291 -0.4418,0.608 -3.0493,-0.2296 -2.6272,-0.8523 -1.0285,1.0285 0.8523,2.6272 0.2296,3.0493 -0.608,0.4418 -2.8291,-1.1607 -2.2353,-1.6224 -1.29597,0.6603 -0.00131,2.762 -0.7239,2.971 L 8.23018,26.5459 5.89819,24.5678 4.2737,22.3341 2.83707,22.5616 1.98234,25.188 0.37576,27.7899 h -0.75152 l -1.60658,-2.6019 -0.85473,-2.6264 -1.43663,-0.2275 -1.62449,2.2337 -2.33199,1.9781 -0.71474,-0.2323 -0.7239,-2.971 -0.00131,-2.762 -1.29597,-0.6603 -2.2353,1.6224 -2.8291,1.1607 -0.608,-0.4418 0.2296,-3.0493 0.8523,-2.6272 -1.0285,-1.0285 -2.6272,0.8523 -3.0493,0.2296 -0.4418,-0.608 1.1607,-2.8291 1.6224,-2.2353 -0.6603,-1.29597 -2.762,-0.00131 -2.971,-0.7239 -0.2323,-0.71474 1.9781,-2.33199 2.2337,-1.62449 -0.2275,-1.43663 -2.6264,-0.85473 -2.6019,-1.60658 v -0.75152 l 2.6019,-1.60658 2.6264,-0.85473 0.2275,-1.43663 -2.2337,-1.62449 -1.9781,-2.33199 0.2323,-0.71474 2.971,-0.7239 2.762,-0.00131 0.6603,-1.29597 -1.6224,-2.2353 -1.1607,-2.8291 0.4418,-0.608 3.0493,0.2296 2.6272,0.8523 1.0285,-1.0285 -0.8523,-2.6272 -0.2296,-3.0493 0.608,-0.4418 2.8291,1.1607 2.2353,1.6224 1.29597,-0.6603 0.00131,-2.762 0.7239,-2.971 0.71474,-0.2323 2.33199,1.9781 1.62449,2.2337 1.43663,-0.2275 0.85473,-2.6264 1.60658,-2.6019 h 0.75152 l 1.60658,2.6019 0.85473,2.6264 1.43663,0.2275 1.62449,-2.2337 2.33199,-1.9781 0.71474,0.2323 0.7239,2.971 0.00131,2.762 1.29597,0.6603 2.2353,-1.6224 2.8291,-1.1607 0.608,0.4418 -0.2296,3.0493 -0.8523,2.6272 1.0285,1.0285 2.6272,-0.8523 3.0493,-0.2296 0.4418,0.608 -1.1607,2.8291 -1.6224,2.2353 0.6603,1.29597 2.762,0.00131 2.971,0.7239 0.2323,0.71474 -1.9781,2.33199 -2.2337,1.62449 z"
         id="path3159" />
    </g>
    <g
       inkscape:label="Rendered Gears"
       transform="translate(-199.84809,-268.40194)"
       id="g3433">
      <path
         style="fill:none;stroke:#000000;stroke-width:0.264583"
         d="m 22.5616,-2.83707 2.6264,0.85473 2.6019,1.60658 v 0.75152 l -2.6019,1.60658 -2.6264,0.85473 -0.2275,1.43663 2.2337,1.62449 1.9781,2.33199 -0.2323,0.71474 -2.971,0.7239 -2.762,0.00131 -0.6603,1.29597 1.6224,2.2353 1.1607,2.8291 -0.4418,0.608 -3.0493,-0.2296 -2.6272,-0.8523 -1.0285,1.0285 0.8523,2.6272 0.2296,3.0493 -0.608,0.4418 -2.8291,-1.1607 -2.2353,-1.6224 -1.29597,0.6603 -0.00131,2.762 -0.7239,2.971 L 8.23018,26.5459 5.89819,24.5678 4.2737,22.3341 2.83707,22.5616 1.98234,25.188 0.37576,27.7899 h -0.75152 l -1.60658,-2.6019 -0.85473,-2.6264 -1.43663,-0.2275 -1.62449,2.2337 -2.33199,1.9781 -0.71474,-0.2323 -0.7239,-2.971 -0.00131,-2.762 -1.29597,-0.6603 -2.2353,1.6224 -2.8291,1.1607 -0.608,-0.4418 0.2296,-3.0493 0.8523,-2.6272 -1.0285,-1.0285 -2.6272,0.8523 -3.0493,0.2296 -0.4418,-0.608 1.1607,-2.8291 1.6224,-2.2353 -0.6603,-1.29597 -2.762,-0.00131 -2.971,-0.7239 -0.2323,-0.71474 1.9781,-2.33199 2.2337,-1.62449 -0.2275,-1.43663 -2.6264,-0.85473 -2.6019,-1.60658 v -0.75152 l 2.6019,-1.60658 2.6264,-0.85473 0.2275,-1.43663 -2.2337,-1.62449 -1.9781,-2.33199 0.2323,-0.71474 2.971,-0.7239 2.762,-0.00131 0.6603,-1.29597 -1.6224,-2.2353 -1.1607,-2.8291 0.4418,-0.608 3.0493,0.2296 2.6272,0.8523 1.0285,-1.0285 -0.8523,-2.6272 -0.2296,-3.0493 0.608,-0.4418 2.8291,1.1607 2.2353,1.6224 1.29597,-0.6603 0.00131,-2.762 0.7239,-2.971 0.71474,-0.2323 2.33199,1.9781 1.62449,2.2337 1.43663,-0.2275 0.85473,-2.6264 1.60658,-2.6019 h 0.75152 l 1.60658,2.6019 0.85473,2.6264 1.43663,0.2275 1.62449,-2.2337 2.33199,-1.9781 0.71474,0.2323 0.7239,2.971 0.00131,2.762 1.29597,0.6603 2.2353,-1.6224 2.8291,-1.1607 0.608,0.4418 -0.2296,3.0493 -0.8523,2.6272 1.0285,1.0285 2.6272,-0.8523 3.0493,-0.2296 0.4418,0.608 -1.1607,2.8291 -1.6224,2.2353 0.6603,1.29597 2.762,0.00131 2.971,0.7239 0.2323,0.71474 -1.9781,2.33199 -2.2337,1.62449 z"
         id="path3431" />
    </g>
    <g
       inkscape:label="Rendered Gears"
       transform="translate(45.843946,-245.64719)"
       id="g3711">
      <path
         style="fill:none;stroke:#000000;stroke-width:0.264583"
         d="m 22.5616,-2.83707 2.6264,0.85473 2.6019,1.60658 v 0.75152 l -2.6019,1.60658 -2.6264,0.85473 -0.2275,1.43663 2.2337,1.62449 1.9781,2.33199 -0.2323,0.71474 -2.971,0.7239 -2.762,0.00131 -0.6603,1.29597 1.6224,2.2353 1.1607,2.8291 -0.4418,0.608 -3.0493,-0.2296 -2.6272,-0.8523 -1.0285,1.0285 0.8523,2.6272 0.2296,3.0493 -0.608,0.4418 -2.8291,-1.1607 -2.2353,-1.6224 -1.29597,0.6603 -0.00131,2.762 -0.7239,2.971 L 8.23018,26.5459 5.89819,24.5678 4.2737,22.3341 2.83707,22.5616 1.98234,25.188 0.37576,27.7899 h -0.75152 l -1.60658,-2.6019 -0.85473,-2.6264 -1.43663,-0.2275 -1.62449,2.2337 -2.33199,1.9781 -0.71474,-0.2323 -0.7239,-2.971 -0.00131,-2.762 -1.29597,-0.6603 -2.2353,1.6224 -2.8291,1.1607 -0.608,-0.4418 0.2296,-3.0493 0.8523,-2.6272 -1.0285,-1.0285 -2.6272,0.8523 -3.0493,0.2296 -0.4418,-0.608 1.1607,-2.8291 1.6224,-2.2353 -0.6603,-1.29597 -2.762,-0.00131 -2.971,-0.7239 -0.2323,-0.71474 1.9781,-2.33199 2.2337,-1.62449 -0.2275,-1.43663 -2.6264,-0.85473 -2.6019,-1.60658 v -0.75152 l 2.6019,-1.60658 2.6264,-0.85473 0.2275,-1.43663 -2.2337,-1.62449 -1.9781,-2.33199 0.2323,-0.71474 2.971,-0.7239 2.762,-0.00131 0.6603,-1.29597 -1.6224,-2.2353 -1.1607,-2.8291 0.4418,-0.608 3.0493,0.2296 2.6272,0.8523 1.0285,-1.0285 -0.8523,-2.6272 -0.2296,-3.0493 0.608,-0.4418 2.8291,1.1607 2.2353,1.6224 1.29597,-0.6603 0.00131,-2.762 0.7239,-2.971 0.71474,-0.2323 2.33199,1.9781 1.62449,2.2337 1.43663,-0.2275 0.85473,-2.6264 1.60658,-2.6019 h 0.75152 l 1.60658,2.6019 0.85473,2.6264 1.43663,0.2275 1.62449,-2.2337 2.33199,-1.9781 0.71474,0.2323 0.7239,2.971 0.00131,2.762 1.29597,0.6603 2.2353,-1.6224 2.8291,-1.1607 0.608,0.4418 -0.2296,3.0493 -0.8523,2.6272 1.0285,1.0285 2.6272,-0.8523 3.0493,-0.2296 0.4418,0.608 -1.1607,2.8291 -1.6224,2.2353 0.6603,1.29597 2.762,0.00131 2.971,0.7239 0.2323,0.71474 -1.9781,2.33199 -2.2337,1.62449 z"
         id="path3707" />
      <circle
         style="fill:none;stroke:#000000;stroke-width:0.264583"
         id="path3709"
         cx="0"
         cy="0"
         r="5.2916665" />
    </g>
  </g>
</svg>
