<?xml version="1.0" encoding="UTF-8" standalone="no"?>
<!-- Created with Inkscape (http://www.inkscape.org/) -->

<svg
   width="225.20584mm"
   height="228.9706mm"
   viewBox="0 0 225.20584 228.9706"
   version="1.1"
   id="svg5"
   inkscape:export-filename="OP3.png"
   inkscape:export-xdpi="96"
   inkscape:export-ydpi="96"
   inkscape:version="1.2.2 (b0a84865, 2022-12-01)"
   sodipodi:docname="OP3.svg"
   xmlns:inkscape="http://www.inkscape.org/namespaces/inkscape"
   xmlns:sodipodi="http://sodipodi.sourceforge.net/DTD/sodipodi-0.dtd"
   xmlns="http://www.w3.org/2000/svg"
   xmlns:svg="http://www.w3.org/2000/svg">
  <sodipodi:namedview
     id="namedview7"
     pagecolor="#ffffff"
     bordercolor="#000000"
     borderopacity="0.25"
     inkscape:showpageshadow="2"
     inkscape:pageopacity="0.0"
     inkscape:pagecheckerboard="0"
     inkscape:deskcolor="#d1d1d1"
     inkscape:document-units="mm"
     showgrid="false"
     inkscape:zoom="0.16"
     inkscape:cx="-790.625"
     inkscape:cy="-121.875"
     inkscape:window-width="1920"
     inkscape:window-height="1027"
     inkscape:window-x="0"
     inkscape:window-y="25"
     inkscape:window-maximized="1"
     inkscape:current-layer="layer1"
     showguides="false" />
  <defs
     id="defs2" />
  <g
     inkscape:label="Layer 1"
     inkscape:groupmode="layer"
     id="layer1"
     transform="translate(283.63717,13.590475)">
    <path
       id="path12788"
       style="color:#000000;fill:#241c1f;-inkscape-stroke:none"
       class="UnoptimicedTransforms"
       d="m 98.730376,25.519462 c -18.961049,0 -36.225014,7.888072 -47.781063,22.300965 l -0.0021,0.0021 v 0.0021 C 39.412779,62.22286 34.220618,81.23628 34.220618,103.18139 c 0,21.94512 5.192122,40.95944 16.726628,55.35786 l 0.01344,0.0176 0.01395,0.0176 c 11.567767,14.33677 28.814909,22.16195 47.755742,22.16195 18.835042,0 36.008202,-7.84896 47.556782,-22.16195 0.2932,-0.36338 0.57946,-0.73196 0.86455,-1.10122 l 5.2e-4,22.26892 h 26.1369 v -74.86881 l -0.002,-52.740455 c 4.51849,0.0501 9.30913,0.255084 12.67572,0.95498 4.13172,0.998314 7.59687,2.495096 10.53734,4.455026 7.1e-4,4.73e-4 0.001,0.0016 0.002,0.0021 3.5385,2.377873 6.03383,5.128873 7.83001,8.445479 l 0.0253,0.04703 0.0274,0.04651 c 1.61015,2.915913 2.72283,7.214859 2.72283,13.343889 0,4.392097 -0.75741,8.235239 -2.20503,11.753804 l 24.16958,9.943577 c 2.81418,-6.839973 4.17184,-14.204552 4.17184,-21.697381 0,-9.253111 -1.6583,-18.128335 -5.9645,-25.943636 -3.86667,-7.114882 -9.48388,-13.131827 -16.24241,-17.664038 l -0.0372,-0.02325 -0.87695,-0.589628 -0.0961,-0.04289 c -5.53138,-3.517373 -11.68296,-6.014409 -18.187,-7.557162 l -0.14676,-0.03514 -0.14625,-0.03101 c -6.86651,-1.46335 -14.17012,-1.85981 -20.10471,-1.855184 -0.61393,4.79e-4 -1.21313,0.0051 -1.79576,0.01344 -6.2147,0.08886 -10.53527,0.581877 -10.53527,0.581877 l -11.96103,1.017509 v 21.59093 C 146.86935,48.52598 146.58777,48.16305 146.29907,47.805029 134.76217,33.426157 117.57866,25.519462 98.730376,25.519462 Z m -0.04961,7.640361 a 5.8941545,5.8941545 0 0 1 5.894214,5.894214 5.8941545,5.8941545 0 0 1 -5.894214,5.894214 5.8941545,5.8941545 0 0 1 -5.894214,-5.894214 5.8941545,5.8941545 0 0 1 5.894214,-5.894214 z m 0.04961,18.496545 c 12.381784,0 20.117124,3.692583 27.189554,12.513448 l 0.0119,0.0155 0.0134,0.01757 c 6.99496,8.669369 11.05876,21.08776 11.05876,38.979024 0,17.89123 -4.06379,30.31062 -11.05876,38.98005 -7.06081,8.75098 -14.8127,12.43593 -27.214874,12.43593 -12.551202,0 -20.357386,-3.70558 -27.394194,-12.4163 -6.935155,-8.665 -10.978658,-21.10335 -10.978658,-38.99968 0,-17.903149 4.04437,-30.346687 10.984342,-39.012097 l 0.0036,-0.0036 C 78.39786,55.372447 86.190547,51.656368 98.730376,51.656368 Z M 220.09454,78.03512 a 5.8941545,5.8941545 0 0 1 5.89422,5.894214 5.8941545,5.8941545 0 0 1 -5.89422,5.894214 5.8941545,5.8941545 0 0 1 -5.89421,-5.894214 5.8941545,5.8941545 0 0 1 5.89421,-5.894214 z M 47.908671,97.233948 a 5.8941545,5.8941545 0 0 1 5.894214,5.894212 5.8941545,5.8941545 0 0 1 -5.894214,5.8937 5.8941545,5.8941545 0 0 1 -5.894213,-5.8937 5.8941545,5.8941545 0 0 1 5.894213,-5.894212 z m 109.140629,0 a 5.8941545,5.8941545 0 0 1 5.89421,5.894212 5.8941545,5.8941545 0 0 1 -5.89421,5.8937 5.8941545,5.8941545 0 0 1 -5.89422,-5.8937 5.8941545,5.8941545 0 0 1 5.89422,-5.894212 z M 98.680766,161.59384 a 5.8941545,5.8941545 0 0 1 5.894214,5.89422 5.8941545,5.8941545 0 0 1 -5.894214,5.89421 5.8941545,5.8941545 0 0 1 -5.894214,-5.89421 5.8941545,5.8941545 0 0 1 5.894214,-5.89422 z"
       transform="matrix(0.83927569,0,0,0.81862599,-283.27257,16.471623)" />
  </g>
</svg>
